<svg xmlns="http://www.w3.org/2000/svg" width="165.49" height="25.206" viewBox="0 0 165.49 25.206"><defs><style>.a{fill:#fff;}.b{fill:#313031;}.c{fill:#eb741b;}.d{fill:#d92823;}</style></defs><path class="a" d="M1789.689-1782.162c-2.03,0-3.875,1.319-5.059,3.618l-10.914,21.169h5.76l9.519-18.462a.782.782,0,0,1,1.389,0l9.519,18.462h5.761l-10.916-21.169C1793.564-1780.843,1791.719-1782.162,1789.689-1782.162Z" transform="translate(-1728.289 1782.457)"/><g transform="translate(0 0.296)"><path class="b" d="M1747.163-1782.162l15.618,16.8h-4.056l-15.618-16.8Z" transform="translate(-1743.106 1782.162)"/><path class="c" d="M1749.9-1782.162l15.617,16.8h-4.056l-15.618-16.8Z" transform="translate(-1741.784 1782.162)"/><path class="d" d="M1756.875-1782.162l15.618,16.8h-8.308l-15.618-16.8Z" transform="translate(-1740.463 1782.162)"/></g><path class="a" d="M1848.009-1762.426a7.168,7.168,0,0,1-7.147-7.171v-.427a7.166,7.166,0,0,1,7.147-7.17H1857l4.746-5.133h-13.737a12.3,12.3,0,0,0-12.264,12.3v.427a12.3,12.3,0,0,0,12.264,12.3h10.973l4.771-5.132Z" transform="translate(-1698.263 1782.377)"/><path class="a" d="M1771-1762.344a7.167,7.167,0,0,0,7.147-7.171v-.427a7.166,7.166,0,0,0-7.147-7.17h-8.99l-4.746-5.134H1771a12.3,12.3,0,0,1,12.265,12.3v.427a12.3,12.3,0,0,1-12.265,12.3h-10.973l-4.771-5.132Z" transform="translate(-1737.227 1782.417)"/><rect class="a" width="5.116" height="25.033" transform="translate(80.446 0.049)"/><rect class="a" width="5.117" height="25.033" transform="translate(127.504 0.049)"/><path class="a" d="M1833.213-1782.1a3.354,3.354,0,0,0-1.319-.265,4.323,4.323,0,0,0-3.005,1.358l-8.485,8.122a.778.778,0,0,1-1.079,0l-8.485-8.124a4.328,4.328,0,0,0-3.007-1.356,3.372,3.372,0,0,0-1.315.264,3.876,3.876,0,0,0-2.2,3.891v20.927h5.117v-16.147a.78.78,0,0,1,1.319-.562l5.147,4.929a5.7,5.7,0,0,0,3.959,1.57,5.69,5.69,0,0,0,3.961-1.572l5.146-4.927a.78.78,0,0,1,1.319.564v16.145h5.117v-20.927A3.909,3.909,0,0,0,1833.213-1782.1Z" transform="translate(-1713.474 1782.361)"/><path class="a" d="M1785.505-1769.713a3.154,3.154,0,0,0-3.146,3.155,3.155,3.155,0,0,0,3.146,3.157,3.155,3.155,0,0,0,3.146-3.157A3.155,3.155,0,0,0,1785.505-1769.713Z" transform="translate(-1724.105 1788.483)"/></svg>